<?xml version="1.0" encoding="utf-8"?>
<!-- Generator: Adobe Illustrator 24.0.3, SVG Export Plug-In . SVG Version: 6.00 Build 0)  -->
<svg version="1.1" id="Calque_1" xmlns="http://www.w3.org/2000/svg" xmlns:xlink="http://www.w3.org/1999/xlink" x="0px" y="0px"
	 viewBox="0 0 512 512" style="enable-background:new 0 0 512 512;" xml:space="preserve">
<style type="text/css">
	.st0{fill-rule:evenodd;clip-rule:evenodd;fill:#28384C;stroke:#28384C;stroke-miterlimit:10;}
	.st1{fill-rule:evenodd;clip-rule:evenodd;fill:#DD352E;}
	.st2{fill-rule:evenodd;clip-rule:evenodd;fill:#EBBA16;}
	.st3{fill-rule:evenodd;clip-rule:evenodd;fill:#23A24D;}
	.st4{fill-rule:evenodd;clip-rule:evenodd;fill:#8E5128;stroke:#8E5128;stroke-miterlimit:10;}
	.st5{fill:#FFFFFF;stroke:#FFFFFF;stroke-miterlimit:10;}
	.st6{fill:#FFFFFF;}
</style>
<g>
	<path class="st0" d="M512,105.9H0v-75C0,13.8,13.8,0,30.9,0h450.2C498.2,0,512,13.8,512,30.9V105.9z"/>
	<path class="st1" d="M35.3,35.3h35.3v35.3H35.3V35.3z"/>
	<path class="st2" d="M105.9,35.3h35.3v35.3h-35.3L105.9,35.3z"/>
	<path class="st3" d="M176.6,35.3h35.3v35.3h-35.3V35.3z"/>
	<path class="st4" d="M481.1,512H30.9C13.8,512,0,498.7,0,482.2V104h512v378.2C512,498.7,498.2,512,481.1,512z"/>
</g>
<path class="st5" d="M167.7,326.6H53c-3.2,0-6.1-1.7-7.7-4.4s-1.6-6.1,0-8.8l61.8-105.9c2.5-4.2,7.9-5.6,12.1-3.2
	c4.2,2.5,5.6,7.9,3.2,12.1L68.3,309h99.4c4.9,0,8.8,4,8.8,8.8S172.6,326.6,167.7,326.6z"/>
<path class="st5" d="M123.6,379.6c-4.9,0-8.8-4-8.8-8.8v-106c0-4.9,4-8.8,8.8-8.8c4.9,0,8.8,4,8.8,8.8v105.9
	C132.4,375.6,128.5,379.6,123.6,379.6z"/>
<path class="st5" d="M450.2,326.6H335.4c-3.2,0-6.1-1.7-7.7-4.4s-1.6-6.1,0-8.8l61.8-105.9c2.5-4.2,7.9-5.6,12.1-3.2
	c4.2,2.5,5.6,7.9,3.2,12.1l-54,92.6h99.4c4.9,0,8.8,4,8.8,8.8S455.1,326.6,450.2,326.6z"/>
<path class="st6" d="M406.1,379.6c-4.9,0-8.8-4-8.8-8.8v-106c0-4.9,4-8.8,8.8-8.8c4.9,0,8.8,4,8.8,8.8v105.9
	C414.9,375.6,410.9,379.6,406.1,379.6z"/>
<path class="st5" d="M251.6,379.6c-31.6,0-57.4-25.7-57.4-57.4v-61.8c0-31.6,25.7-57.4,57.4-57.4s57.4,25.7,57.4,57.4v61.8
	C309,353.8,283.2,379.6,251.6,379.6z M251.6,220.7c-21.9,0-39.7,17.8-39.7,39.7v61.8c0,21.9,17.8,39.7,39.7,39.7
	s39.7-17.8,39.7-39.7v-61.8C291.3,238.5,273.5,220.7,251.6,220.7L251.6,220.7z"/>
</svg>
