<?xml version="1.0" encoding="utf-8"?>
<!-- Generator: Adobe Illustrator 24.2.1, SVG Export Plug-In . SVG Version: 6.00 Build 0)  -->
<svg version="1.1" id="Capa_1" xmlns="http://www.w3.org/2000/svg" xmlns:xlink="http://www.w3.org/1999/xlink" x="0px" y="0px"
	 viewBox="0 0 512 512" style="enable-background:new 0 0 512 512;" xml:space="preserve">
<style type="text/css">
	.st0{fill:#592C1C;stroke:#592C1C;stroke-width:2;stroke-miterlimit:10;}
</style>
<g>
	<g>
		<path class="st0" d="M270.3,262.8L436,97.1c5.8-5.8,5.8-15.3,0-21.1c-5.8-5.8-15.3-5.8-21.1,0L249.2,241.7L83.5,76
			c-5.8-5.8-15.3-5.8-21.1,0c-5.8,5.8-5.8,15.3,0,21.1l165.7,165.7L62.4,428.5c-5.8,5.8-5.8,15.3,0,21.1c2.9,2.9,6.7,4.4,10.6,4.4
			s7.6-1.5,10.6-4.4l165.7-165.7l165.7,165.7c2.9,2.9,6.7,4.4,10.6,4.4s7.6-1.5,10.6-4.4c5.8-5.8,5.8-15.3,0-21.1L270.3,262.8z"/>
	</g>
</g>
</svg>
