<?xml version="1.0" encoding="utf-8"?>
<!-- Generator: Adobe Illustrator 24.0.3, SVG Export Plug-In . SVG Version: 6.00 Build 0)  -->
<svg version="1.1" id="Calque_1" xmlns="http://www.w3.org/2000/svg" xmlns:xlink="http://www.w3.org/1999/xlink" x="0px" y="0px"
	 viewBox="0 0 106.5 170" style="enable-background:new 0 0 106.5 170;" xml:space="preserve">
<style type="text/css">
	.st0{fill:#3D1D14;}
	.st1{fill:#592C1B;}
	.st2{fill:#FFFFFF;stroke:#592C1B;stroke-width:2;stroke-miterlimit:10;}
</style>
<title>logo - 1</title>
<path class="st0" d="M7.8,13.2c5-0.9,10-1.5,15-1.8c6.4-0.4,12.9-0.6,19.5-0.6c7.5-0.1,14.9,0.6,22.2,2.1c6.1,1.2,12,3.6,17.2,7
	c4.7,3.1,8.6,7.4,11.2,12.4c2.6,5.1,3.9,11.2,3.9,18.5c0,4.2-0.7,8.3-2,12.3c-1.3,3.6-3.2,7-5.5,10.1c-2.2,2.9-4.9,5.3-7.9,7.2
	c-2.8,1.9-5.9,3.3-9.2,4.2c4.2,0.5,8.2,1.5,12.1,3.2c4.1,1.7,7.8,4.2,11,7.3c3.5,3.4,6.2,7.4,8.1,11.9c2.2,5.5,3.2,11.5,3.1,17.4
	c0,8.3-1.7,15.3-5,21.1c-3.2,5.7-7.8,10.5-13.3,14c-6.1,3.7-12.9,6.3-19.9,7.7c-8.1,1.6-16.3,2.3-24.5,2.3c-5.4,0-11.4-0.2-17.8-0.7
	s-12.5-1.1-18.2-1.8L7.8,13.2z M45.1,77.3c9.7,0,17.1-2.1,22.2-6.3c5.1-4.2,7.7-10.5,7.7-18.9s-2.7-14.2-8.2-18.2s-13-6-22.4-6
	l-8.2,0.2c-2.7,0.2-4.9,0.4-6.8,0.7v48.5H45.1z M29.4,150.1c2.5,0.3,5.1,0.5,7.6,0.6c3.1,0.2,6.1,0.2,9.1,0.2
	c4.9,0,9.7-0.4,14.5-1.3c4.2-0.7,8.2-2.2,11.8-4.3c3.4-2,6.2-4.9,8.2-8.4c2-3.5,3-7.9,3-13.4c0.1-4.6-0.9-9.1-2.8-13.3
	c-1.7-3.5-4.4-6.6-7.6-8.8c-3.5-2.3-7.4-3.9-11.5-4.7c-4.7-0.9-9.5-1.4-14.3-1.4h-18V150.1z"/>
<path class="st1" d="M0,6.2c4.9-0.9,9.9-1.5,14.9-1.7C21.3,4,27.8,3.8,34.4,3.8C41.9,3.7,49.3,4.5,56.6,6c6.2,1.2,12,3.5,17.3,6.9
	c4.6,3.2,8.5,7.4,11.1,12.4c2.6,5.1,3.9,11.2,3.9,18.5c0.1,4.2-0.6,8.4-2,12.3c-1.3,3.6-3.1,7-5.4,10.1c-2.2,2.8-4.9,5.3-8,7.2
	c-2.8,1.9-5.9,3.3-9.2,4.2c4.2,0.5,8.3,1.5,12.1,3.2c4.1,1.7,7.8,4.2,11,7.3c3.5,3.4,6.2,7.4,8.1,11.9c2.2,5.5,3.2,11.5,3.1,17.4
	c0,8.3-1.7,15.3-4.9,21.1c-3.2,5.7-7.9,10.5-13.4,14c-6.1,3.7-12.9,6.3-19.9,7.7c-8.1,1.6-16.3,2.4-24.5,2.3
	c-5.4,0-11.3-0.2-17.8-0.7S5.7,160.7,0,160V6.2z M37.2,70.3c9.7,0,17.1-2.1,22.2-6.3c5.2-4.2,7.7-10.5,7.7-18.9s-2.7-14.2-8.2-18.2
	s-13-6-22.4-6l-8.2,0.2c-2.6,0.2-4.9,0.4-6.7,0.7v48.5H37.2z M21.6,143.1c2.5,0.3,5.1,0.5,7.6,0.6c3,0.2,6.1,0.2,9,0.2
	c4.9,0,9.7-0.4,14.5-1.3c4.2-0.7,8.2-2.2,11.9-4.3c3.4-2.1,6.2-5,8.1-8.4c2-3.5,3-7.9,3-13.3s-0.9-9.8-2.8-13.4
	c-1.7-3.5-4.4-6.6-7.6-8.8c-3.4-2.3-7.3-3.9-11.4-4.7c-4.7-0.9-9.6-1.4-14.4-1.4H21.6V143.1z"/>
<polygon class="st2" points="23.5,27.4 33.4,35 33.4,1 13.5,1 13.5,34.8 "/>
</svg>
