<svg enable-background="new 0 0 512 512" viewBox="0 0 512 512" xmlns="http://www.w3.org/2000/svg"><g clip-rule="evenodd" fill-rule="evenodd"><path d="m512 105.9h-512v-75c0-17.1 13.8-30.9 30.9-30.9h450.2c17.1 0 30.9 13.8 30.9 30.9z" fill="#28384c"/><path d="m35.3 35.3h35.3v35.3h-35.3z" fill="#dd352e"/><path d="m105.9 35.3h35.3v35.3h-35.3z" fill="#ebba16"/><path d="m176.6 35.3h35.3v35.3h-35.3z" fill="#23a24d"/><path d="m481.1 512h-450.2c-17.1 0-30.9-13.8-30.9-30.9v-392.8h512v392.8c0 17.1-13.8 30.9-30.9 30.9z" fill="#8e5128"/></g><path d="m167.7 326.6h-114.7c-3.2 0-6.1-1.7-7.7-4.4s-1.6-6.1 0-8.8l61.8-105.9c2.5-4.2 7.9-5.6 12.1-3.2 4.2 2.5 5.6 7.9 3.2 12.1l-54.1 92.6h99.4c4.9 0 8.8 4 8.8 8.8s-3.9 8.8-8.8 8.8z" fill="#fff"/><path d="m123.6 379.6c-4.9 0-8.8-4-8.8-8.8v-106c0-4.9 4-8.8 8.8-8.8 4.9 0 8.8 4 8.8 8.8v105.9c0 4.9-3.9 8.9-8.8 8.9z" fill="#fff"/><path d="m450.2 326.6h-114.8c-3.2 0-6.1-1.7-7.7-4.4s-1.6-6.1 0-8.8l61.8-105.9c2.5-4.2 7.9-5.6 12.1-3.2 4.2 2.5 5.6 7.9 3.2 12.1l-54 92.6h99.4c4.9 0 8.8 4 8.8 8.8s-3.9 8.8-8.8 8.8z" fill="#fff"/><path d="m406.1 379.6c-4.9 0-8.8-4-8.8-8.8v-106c0-4.9 4-8.8 8.8-8.8 4.9 0 8.8 4 8.8 8.8v105.9c0 4.9-4 8.9-8.8 8.9z" fill="#fff"/><path d="m251.6 379.6c-31.6 0-57.4-25.7-57.4-57.4v-61.8c0-31.6 25.7-57.4 57.4-57.4s57.4 25.7 57.4 57.4v61.8c0 31.6-25.8 57.4-57.4 57.4zm0-158.9c-21.9 0-39.7 17.8-39.7 39.7v61.8c0 21.9 17.8 39.7 39.7 39.7s39.7-17.8 39.7-39.7v-61.8c0-21.9-17.8-39.7-39.7-39.7z" fill="#fff"/></svg>