<?xml version="1.0" encoding="utf-8"?>
<!-- Generator: Adobe Illustrator 24.2.1, SVG Export Plug-In . SVG Version: 6.00 Build 0)  -->
<svg version="1.1" id="Capa_1" xmlns="http://www.w3.org/2000/svg" xmlns:xlink="http://www.w3.org/1999/xlink" x="0px" y="0px"
	 viewBox="0 0 512 512" style="enable-background:new 0 0 512 512;" xml:space="preserve">
<style type="text/css">
	.st0{fill:#592C1C;}
</style>
<path class="st0" d="M256,0C114.6,0,0,114.6,0,256c0,141.4,114.6,256,256,256s256-114.6,256-256C512,114.6,397.4,0,256,0z M256,384
	c-17.7,0-32-14.3-32-32c0-17.7,14.3-32,32-32s32,14.3,32,32C288,369.7,273.7,384,256,384z M288,272h-64l-16-128c0-8.8,7.2-16,16-16
	h64c8.8,0,16,7.2,16,16L288,272z"/>
</svg>
