<svg xmlns="http://www.w3.org/2000/svg" viewBox="0 0 123.3 896.3"><defs><style>.a{fill:#3d1d14;}.b{fill:#592c1b;}.c{fill:#fff;stroke:#592c1b;stroke-miterlimit:10;stroke-width:2px;}</style></defs><title>logo - 1</title><path class="a" d="M10.1,14.4a118.4,118.4,0,0,1,15-1.8q9.6-.6,19.5-.6a108.7,108.7,0,0,1,22.2,2.1,49.7,49.7,0,0,1,17.2,7A33.4,33.4,0,0,1,95.2,33.5c2.6,5.1,3.9,11.2,3.9,18.5a37.8,37.8,0,0,1-2,12.3,37.8,37.8,0,0,1-5.5,10.1,30,30,0,0,1-7.9,7.2,29.2,29.2,0,0,1-9.2,4.2A42.6,42.6,0,0,1,86.6,89a36.4,36.4,0,0,1,11,7.3,35.8,35.8,0,0,1,8.1,11.9,44.4,44.4,0,0,1,3.1,17.4c0,8.3-1.7,15.3-5,21.1a39.6,39.6,0,0,1-13.3,14,62.1,62.1,0,0,1-19.9,7.7,127.4,127.4,0,0,1-24.5,2.3c-5.4,0-11.4-.2-17.8-.7s-12.5-1.1-18.2-1.8ZM47.4,78.5q14.6,0,22.2-6.3c5.1-4.2,7.7-10.5,7.7-18.9s-2.7-14.2-8.2-18.2-13-6-22.4-6l-8.2.2c-2.7.2-4.9.4-6.8.7V78.5ZM31.7,151.3a69.1,69.1,0,0,0,7.6.6c3.1.2,6.1.2,9.1.2a73.8,73.8,0,0,0,14.5-1.3,35.2,35.2,0,0,0,11.8-4.3,22.8,22.8,0,0,0,8.2-8.4c2-3.5,3-7.9,3-13.4a29.7,29.7,0,0,0-2.8-13.3,23.3,23.3,0,0,0-7.6-8.8A30.6,30.6,0,0,0,64,97.9a71.5,71.5,0,0,0-14.3-1.4h-18Z" transform="translate(14.5 -1.2)"/><path class="b" d="M2.3,7.4A117.3,117.3,0,0,1,17.2,5.7C23.6,5.2,30.1,5,36.7,5A101.9,101.9,0,0,1,58.9,7.2a49,49,0,0,1,17.3,6.9A34.8,34.8,0,0,1,87.3,26.5c2.6,5.1,3.9,11.2,3.9,18.5a35.3,35.3,0,0,1-2,12.3,36.1,36.1,0,0,1-5.4,10.1,32.1,32.1,0,0,1-8,7.2,29.2,29.2,0,0,1-9.2,4.2A41.8,41.8,0,0,1,78.7,82a35.2,35.2,0,0,1,11,7.3,35.8,35.8,0,0,1,8.1,11.9,45.1,45.1,0,0,1,3.1,17.4c0,8.3-1.7,15.3-4.9,21.1a39.9,39.9,0,0,1-13.4,14,59.9,59.9,0,0,1-19.9,7.7,119.2,119.2,0,0,1-24.5,2.3c-5.4,0-11.3-.2-17.8-.7S8,161.9,2.3,161.2ZM39.5,71.5q14.6,0,22.2-6.3c5.2-4.2,7.7-10.5,7.7-18.9s-2.7-14.2-8.2-18.2-13-6-22.4-6l-8.2.2c-2.6.2-4.9.4-6.7.7V71.5ZM23.9,144.3a67,67,0,0,0,7.6.6c3,.2,6.1.2,9,.2A73.8,73.8,0,0,0,55,143.8a36.6,36.6,0,0,0,11.9-4.3,23.3,23.3,0,0,0,8.1-8.4c2-3.5,3-7.9,3-13.3s-.9-9.8-2.8-13.4a23.3,23.3,0,0,0-7.6-8.8,30.8,30.8,0,0,0-11.4-4.7,72.5,72.5,0,0,0-14.4-1.4H23.9Z" transform="translate(14.5 -1.2)"/><text x="14.5" y="-1.2"/><polygon class="c" points="40.3 27.4 50.2 35 50.2 1 30.3 1 30.3 34.8 40.3 27.4"/></svg>