<?xml version="1.0" encoding="utf-8"?>
<!-- Generator: Adobe Illustrator 24.2.1, SVG Export Plug-In . SVG Version: 6.00 Build 0)  -->
<svg version="1.1" id="Layer_1" xmlns="http://www.w3.org/2000/svg" xmlns:xlink="http://www.w3.org/1999/xlink" x="0px" y="0px"
	 viewBox="0 0 512 512" style="enable-background:new 0 0 512 512;" xml:space="preserve">
<style type="text/css">
	.st0{fill:#592C1C;stroke:#592C1C;stroke-miterlimit:10;}
</style>
<g>
	<g>
		<path class="st0" d="M506.1,487.5l-153-151.8c31.8-35,51.3-81.2,51.3-131.9c0-108.9-89.3-197.5-199.1-197.5S6.2,94.9,6.2,203.8
			s89.3,197.5,199.1,197.5c51.1,0,97.7-19.4,133-50.9l153,151.8c2,2,4.7,3,7.4,3s5.4-1,7.4-3C510.2,498.2,510.2,491.6,506.1,487.5z
			 M205.3,380.5c-98.2,0-178.1-79.3-178.1-176.7S107.1,27.1,205.3,27.1s178.1,79.3,178.1,176.7S303.5,380.5,205.3,380.5z"/>
	</g>
</g>
</svg>
