<?xml version="1.0" encoding="utf-8"?>
<!-- Generator: Adobe Illustrator 24.2.1, SVG Export Plug-In . SVG Version: 6.00 Build 0)  -->
<svg version="1.1" id="Capa_1" xmlns="http://www.w3.org/2000/svg" xmlns:xlink="http://www.w3.org/1999/xlink" x="0px" y="0px"
	 viewBox="0 0 512 512" style="enable-background:new 0 0 512 512;" xml:space="preserve">
<style type="text/css">
	.st0{fill:#FFFFFF;stroke:#592C1C;stroke-width:0.25;stroke-miterlimit:10;}
</style>
<g>
	<g>
		<path class="st0" d="M460.2,416.3l-22.5-280.8c-1.4-18.1-16.9-32.3-35.2-32.3H358v-2c0-53.2-43.7-96.5-97.5-96.5S163,48,163,101.2
			v2h-44.5c-18.3,0-33.8,14.2-35.2,32.2L60.7,416.3c-1.7,22.5,6.1,44.9,21.6,61.4s37.5,26,60.3,26h235.7c22.8,0,44.8-9.5,60.3-26
			C454.1,461.2,462,438.8,460.2,416.3z M192.5,101.3c0-37.1,30.5-67.2,68-67.2s68,30.2,68,67.2v2h-136V101.3z M416.9,457.9
			c-10.1,10.7-23.8,16.7-38.6,16.7H142.6c-14.8,0-28.5-5.9-38.6-16.7c-10.1-10.8-15-24.7-13.9-39.3l22.5-280.9
			c0.2-3,2.8-5.3,5.8-5.3h44.5v36c0,8.1,6.6,14.6,14.8,14.6s14.8-6.5,14.8-14.6v-36h135.9v36c0,8.1,6.6,14.6,14.8,14.6
			c8.2,0,14.8-6.5,14.8-14.6v-36h44.5c3,0,5.5,2.3,5.8,5.3l22.5,280.8C431.9,433.2,427,447.2,416.9,457.9z"/>
	</g>
</g>
</svg>
